<svg xmlns="http://www.w3.org/2000/svg" xmlns:xlink="http://www.w3.org/1999/xlink" contentStyleType="text/css" data-diagram-type="DESCRIPTION" height="448px" preserveAspectRatio="none" style="width:1381px;height:448px;background:#FFFFFF;" version="1.1" viewBox="0 0 1381 448" width="1381px" zoomAndPan="magnify"><defs/><g><!--cluster API--><g class="cluster" data-entity="API" data-source-line="6" data-uid="ent0005" id="cluster_API"><rect fill="#FFFFFF" height="172.86" rx="2.5" ry="2.5" style="stroke:#000000;stroke-width:1;" width="792" x="324" y="158"/><text fill="#000000" font-family="Verdana" font-size="14" font-weight="bold" lengthAdjust="spacing" textLength="195.583" x="622.2085" y="172.9951">Data Pipeline Engine API</text></g><!--entity PM--><g class="entity" data-entity="PM" data-source-line="7" data-uid="ent0006" id="entity_PM"><rect fill="#FFFFFF" height="36.2969" rx="2.5" ry="2.5" style="stroke:#000000;stroke-width:1;" width="171.7715" x="736" y="270.86"/><text fill="#000000" font-family="Verdana" font-size="14" lengthAdjust="spacing" textLength="151.7715" x="746" y="293.8551">Pipeline Management</text></g><!--entity PE--><g class="entity" data-entity="PE" data-source-line="8" data-uid="ent0007" id="entity_PE"><rect fill="#FFFFFF" height="36.2969" rx="2.5" ry="2.5" style="stroke:#000000;stroke-width:1;" width="148.6797" x="943.5" y="270.86"/><text fill="#000000" font-family="Verdana" font-size="14" lengthAdjust="spacing" textLength="128.6797" x="953.5" y="293.8551">Pipeline Execution</text></g><!--entity MON--><g class="entity" data-entity="MON" data-source-line="9" data-uid="ent0008" id="entity_MON"><rect fill="#FFFFFF" height="36.2969" rx="2.5" ry="2.5" style="stroke:#000000;stroke-width:1;" width="165.5029" x="348" y="270.86"/><text fill="#000000" font-family="Verdana" font-size="14" lengthAdjust="spacing" textLength="145.5029" x="358" y="293.8551">Monitoring &amp; Metrics</text></g><!--entity EM--><g class="entity" data-entity="EM" data-source-line="10" data-uid="ent0009" id="entity_EM"><rect fill="#FFFFFF" height="36.2969" rx="2.5" ry="2.5" style="stroke:#000000;stroke-width:1;" width="151.3525" x="549.5" y="270.86"/><text fill="#000000" font-family="Verdana" font-size="14" lengthAdjust="spacing" textLength="131.3525" x="559.5" y="293.8551">Error Management</text></g><!--entity DE--><g class="entity" data-entity="DE" data-source-line="2" data-uid="ent0002" id="entity_DE"><ellipse cx="61.1143" cy="19" fill="#FFFFFF" rx="8" ry="8" style="stroke:#000000;stroke-width:1;"/><path d="M61.1143,27 L61.1143,54 M48.1143,35 L74.1143,35 M61.1143,54 L48.1143,69 M61.1143,54 L74.1143,69" fill="none" style="stroke:#000000;stroke-width:1;"/><text fill="#000000" font-family="Verdana" font-size="14" lengthAdjust="spacing" textLength="100.2285" x="11" y="83.9951">Data Engineer</text></g><!--entity SA--><g class="entity" data-entity="SA" data-source-line="3" data-uid="ent0003" id="entity_SA"><ellipse cx="625.1694" cy="19" fill="#FFFFFF" rx="8" ry="8" style="stroke:#000000;stroke-width:1;"/><path d="M625.1694,27 L625.1694,54 M612.1694,35 L638.1694,35 M625.1694,54 L612.1694,69 M625.1694,54 L638.1694,69" fill="none" style="stroke:#000000;stroke-width:1;"/><text fill="#000000" font-family="Verdana" font-size="14" lengthAdjust="spacing" textLength="152.3389" x="549" y="83.9951">System Administrator</text></g><!--entity AC--><g class="entity" data-entity="AC" data-source-line="4" data-uid="ent0004" id="entity_AC"><ellipse cx="200.0645" cy="19" fill="#FFFFFF" rx="8" ry="8" style="stroke:#000000;stroke-width:1;"/><path d="M200.0645,27 L200.0645,54 M187.0645,35 L213.0645,35 M200.0645,54 L187.0645,69 M200.0645,54 L213.0645,69" fill="none" style="stroke:#000000;stroke-width:1;"/><text fill="#000000" font-family="Verdana" font-size="14" lengthAdjust="spacing" textLength="67.1289" x="166.5" y="83.9951">API Client</text></g><!--entity DB--><g class="entity" data-entity="DB" data-source-line="13" data-uid="ent0010" id="entity_DB"><path d="M736,395.86 C736,385.86 822.002,385.86 822.002,385.86 C822.002,385.86 908.0039,385.86 908.0039,395.86 L908.0039,421.1569 C908.0039,431.1569 822.002,431.1569 822.002,431.1569 C822.002,431.1569 736,431.1569 736,421.1569 L736,395.86" fill="#FFFFFF" style="stroke:#000000;stroke-width:1;"/><path d="M736,395.86 C736,405.86 822.002,405.86 822.002,405.86 C822.002,405.86 908.0039,405.86 908.0039,395.86" fill="none" style="stroke:#000000;stroke-width:1;"/><text fill="#000000" font-family="Verdana" font-size="14" lengthAdjust="spacing" textLength="152.0039" x="746" y="422.8551">PostgreSQL Database</text></g><!--entity MS--><g class="entity" data-entity="MS" data-source-line="14" data-uid="ent0011" id="entity_MS"><rect fill="#FFFFFF" height="36.2969" rx="2.5" ry="2.5" style="stroke:#000000;stroke-width:1;" width="151.5234" x="148" y="270.86"/><text fill="#000000" font-family="Verdana" font-size="14" lengthAdjust="spacing" textLength="131.5234" x="158" y="293.8551">Monitoring System</text></g><!--entity PR--><g class="entity" data-entity="PR" data-source-line="15" data-uid="ent0012" id="entity_PR"><rect fill="#FFFFFF" height="36.2969" rx="2.5" ry="2.5" style="stroke:#000000;stroke-width:1;" width="125.2461" x="1250.5" y="270.86"/><text fill="#000000" font-family="Verdana" font-size="14" lengthAdjust="spacing" textLength="105.2461" x="1260.5" y="293.8551">Plugin Registry</text></g><!--link DE to API--><g class="link" data-entity-1="DE" data-entity-2="API" data-source-line="17" data-uid="lnk13" id="link_DE_API"><path d="M111.13,72.7 C123.36,77.84 136.52,82.96 149,87 C199.96,103.495 254.9262,117.7975 308.7758,129.9802 C335.7005,136.0715 362.3461,141.6329 388.0722,146.6733 C400.9352,149.1936 413.5683,151.5836 425.8915,153.8445 C432.0531,154.975 438.1372,156.0732 444.1338,157.1393 C445.633,157.4058 441.2179,156.628 442.706,156.8905" fill="none" id="DE-to-API" style="stroke:#000000;stroke-width:1;"/><polygon fill="#000000" points="448.6148,157.9328,440.4465,152.4301,443.6908,157.0642,439.0567,160.3085,448.6148,157.9328" style="stroke:#000000;stroke-width:1;"/><text fill="#000000" font-family="Verdana" font-size="13" lengthAdjust="spacing" textLength="59.8584" x="317" y="130.0669">manages</text></g><!--link SA to API--><g class="link" data-entity-1="SA" data-entity-2="API" data-source-line="18" data-uid="lnk14" id="link_SA_API"><path d="M625,87.07 C625,106.395 625,129.825 625,148.8488 C625,151.2267 625,153.5358 625,155.7595 C625,156.3154 625,156.866 625,157.4109 C625,157.5472 625,151.6831 625,151.8186" fill="none" id="SA-to-API" style="stroke:#000000;stroke-width:1;"/><polygon fill="#000000" points="625,157.8186,629,148.8186,625,152.8186,621,148.8186,625,157.8186" style="stroke:#000000;stroke-width:1;"/><text fill="#000000" font-family="Verdana" font-size="13" lengthAdjust="spacing" textLength="76.3306" x="626" y="130.0669">administers</text></g><!--link AC to API--><g class="link" data-entity-1="AC" data-entity-2="API" data-source-line="19" data-uid="lnk15" id="link_AC_API"><path d="M233.7,60.19 C283.57,76.015 380.2625,106.6975 465.0475,133.6013 C486.2438,140.3272 506.6958,146.817 525.4859,152.7794 C530.1835,154.27 534.7771,155.7276 539.2526,157.1477 C539.812,157.3252 534.6506,155.6875 535.2064,155.8638" fill="none" id="AC-to-API" style="stroke:#000000;stroke-width:1;"/><polygon fill="#000000" points="540.9253,157.6785,533.5567,151.1438,536.1595,156.1662,531.1371,158.7691,540.9253,157.6785" style="stroke:#000000;stroke-width:1;"/><text fill="#000000" font-family="Verdana" font-size="13" lengthAdjust="spacing" textLength="65.7871" x="464" y="130.0669">consumes</text></g><!--link API to DB--><g class="link" data-entity-1="API" data-entity-2="DB" data-source-line="21" data-uid="lnk16" id="link_API_DB"><path d="M1116.0429,265.3016 C1116.1231,265.421 1116.2029,265.5405 1116.2823,265.6599 C1116.4411,265.8988 1116.5981,266.1376 1116.7536,266.3764 C1119.2401,270.1966 1121.2973,274.0006 1122.9316,277.7963 C1126.2,285.3875 1127.7763,292.945 1127.71,300.53 C1127.5775,315.7 1120.875,330.98 1108,346.86 C1083.15,377.51 988.9391,392.6414 914.1091,400.2714" fill="none" id="API-to-DB" style="stroke:#000000;stroke-width:1;"/><polygon fill="#000000" points="908.14,400.88,917.4993,403.9464,913.1142,400.3728,916.6878,395.9877,908.14,400.88" style="stroke:#000000;stroke-width:1;"/><text fill="#000000" font-family="Verdana" font-size="13" lengthAdjust="spacing" textLength="50.6226" x="1128" y="293.4269">persists</text></g><!--link API to MS--><g class="link" data-entity-1="API" data-entity-2="MS" data-source-line="22" data-uid="lnk17" id="link_API_MS"><path d="M323.5951,250.9864 C323.4032,251.0517 323.2113,251.1169 323.0197,251.1822 C322.6363,251.3127 322.2534,251.4432 321.8711,251.5737 C320.3417,252.0955 318.8207,252.6168 317.3089,253.1371 C311.2614,255.2185 305.3599,257.2848 299.652,259.3116 C288.2363,263.365 283.2163,265.162 273.7313,268.702" fill="none" id="API-to-MS" style="stroke:#000000;stroke-width:1;"/><polygon fill="#000000" points="268.11,270.8,277.9405,271.4005,272.7944,269.0517,275.1432,263.9055,268.11,270.8" style="stroke:#000000;stroke-width:1;"/><text fill="#000000" font-family="Verdana" font-size="13" lengthAdjust="spacing" textLength="99.5313" x="414" y="236.9269">reports metrics</text></g><!--link API to PR--><g class="link" data-entity-1="API" data-entity-2="PR" data-source-line="23" data-uid="lnk18" id="link_API_PR"><path d="M1117.5447,211.2941 C1118.3082,211.3926 1119.0684,211.4914 1119.8255,211.5907 C1122.8536,211.9876 1125.8303,212.3907 1128.7526,212.7999 C1152.1309,216.0739 1172.0313,219.745 1187,223.86 C1223.91,234.01 1257.523,252.3845 1282.143,267.6745" fill="none" id="API-to-PR" style="stroke:#000000;stroke-width:1;"/><polygon fill="#000000" points="1287.24,270.84,1281.7047,262.6938,1282.9925,268.2021,1277.4841,269.4898,1287.24,270.84" style="stroke:#000000;stroke-width:1;"/><text fill="#000000" font-family="Verdana" font-size="13" lengthAdjust="spacing" textLength="46.979" x="1231" y="236.9269">plugins</text></g><!--link DE to MS--><g class="link" data-entity-1="DE" data-entity-2="MS" data-source-line="25" data-uid="lnk19" id="link_DE_MS"><path d="M74.11,87.07 C85.69,117.43 104.4,160.47 128,193.86 C149.41,224.15 176.643,249.2261 197.713,266.8061" fill="none" id="DE-to-MS" style="stroke:#000000;stroke-width:1;stroke-dasharray:7.0,7.0;"/><polygon fill="#000000" points="202.32,270.65,197.9721,261.8128,198.4808,267.4467,192.8469,267.9555,202.32,270.65" style="stroke:#000000;stroke-width:1;"/><text fill="#000000" font-family="Verdana" font-size="13" lengthAdjust="spacing" textLength="57.6367" x="129" y="189.9269">monitors</text></g><!--link SA to MS--><g class="link" data-entity-1="SA" data-entity-2="MS" data-source-line="26" data-uid="lnk20" id="link_SA_MS"><path d="M548.71,67 C439.52,92.2 251.18,136.33 246,142 C213.34,177.72 216.1144,234.2543 220.2144,264.5143" fill="none" id="SA-to-MS" style="stroke:#000000;stroke-width:1;stroke-dasharray:7.0,7.0;"/><polygon fill="#000000" points="221.02,270.46,223.7754,261.0044,220.3487,265.5053,215.8478,262.0786,221.02,270.46" style="stroke:#000000;stroke-width:1;"/><text fill="#000000" font-family="Verdana" font-size="13" lengthAdjust="spacing" textLength="68.1357" x="247" y="189.9269">configures</text></g><!--link SA to PR--><g class="link" data-entity-1="SA" data-entity-2="PR" data-source-line="27" data-uid="lnk21" id="link_SA_PR"><path d="M701.1,56.74 C800.46,67.74 978.81,92.78 1124,142 C1200.02,167.77 1229.91,165.48 1285,223.86 C1297.49,237.09 1303.287,251.0251 1307.337,265.0651" fill="none" id="SA-to-PR" style="stroke:#000000;stroke-width:1;stroke-dasharray:7.0,7.0;"/><polygon fill="#000000" points="1309,270.83,1310.3488,261.0739,1307.6142,266.0259,1302.6623,263.2912,1309,270.83" style="stroke:#000000;stroke-width:1;"/><text fill="#000000" font-family="Verdana" font-size="13" lengthAdjust="spacing" textLength="59.8584" x="1252" y="189.9269">manages</text></g><!--link API to PM--><g class="link" data-entity-1="API" data-entity-2="PM" data-source-line="29" data-uid="lnk22" id="link_API_PM"><path d="M625.14,186.43 C629.52,188.69 728.3064,239.5817 783.3064,267.9217" fill="none" id="API-to-PM" style="stroke:#000000;stroke-width:1;"/><polygon fill="#000000" points="788.64,270.67,782.4718,262.9919,784.1953,268.3798,778.8075,270.1033,788.64,270.67" style="stroke:#000000;stroke-width:1;"/></g><!--link API to PE--><g class="link" data-entity-1="API" data-entity-2="PE" data-source-line="30" data-uid="lnk23" id="link_API_PE"><path d="M625.12,186.38 C630.28,187.3 796.36,217.01 926,254.86 C941.8,259.47 953.1924,263.2762 968.2624,268.7662" fill="none" id="API-to-PE" style="stroke:#000000;stroke-width:1;"/><polygon fill="#000000" points="973.9,270.82,966.8128,263.981,969.202,269.1085,964.0745,271.4977,973.9,270.82" style="stroke:#000000;stroke-width:1;"/></g><!--link API to MON--><g class="link" data-entity-1="API" data-entity-2="MON" data-source-line="31" data-uid="lnk24" id="link_API_MON"><path d="M624.86,186.43 C620.55,188.69 523.3364,239.5486 469.1664,267.8886" fill="none" id="API-to-MON" style="stroke:#000000;stroke-width:1;"/><polygon fill="#000000" points="463.85,270.67,473.6788,270.0422,468.2803,268.3522,469.9703,262.9537,463.85,270.67" style="stroke:#000000;stroke-width:1;"/></g><!--link API to EM--><g class="link" data-entity-1="API" data-entity-2="EM" data-source-line="32" data-uid="lnk25" id="link_API_EM"><path d="M625,186.43 C625,188.69 625,236.33 625,264.67" fill="none" id="API-to-EM" style="stroke:#000000;stroke-width:1;"/><polygon fill="#000000" points="625,270.67,629,261.67,625,265.67,621,261.67,625,270.67" style="stroke:#000000;stroke-width:1;"/></g><!--link PM to DB--><g class="link" data-entity-1="PM" data-entity-2="DB" data-source-line="34" data-uid="lnk26" id="link_PM_DB"><path d="M822,306.95 C822,327.7 822,356.73 822,379.45" fill="none" id="PM-to-DB" style="stroke:#000000;stroke-width:1;"/><polygon fill="#000000" points="822,385.45,826,376.45,822,380.45,818,376.45,822,385.45" style="stroke:#000000;stroke-width:1;"/></g><!--link PE to DB--><g class="link" data-entity-1="PE" data-entity-2="DB" data-source-line="35" data-uid="lnk27" id="link_PE_DB"><path d="M990.75,307.02 C972.5,318.44 947.91,333.7 926,346.86 C904.15,359.98 884.7058,371.3295 864.8958,382.7695" fill="none" id="PE-to-DB" style="stroke:#000000;stroke-width:1;"/><polygon fill="#000000" points="859.7,385.77,869.4941,384.7331,864.0299,383.2696,865.4934,377.8053,859.7,385.77" style="stroke:#000000;stroke-width:1;"/></g><!--link MON to DB--><g class="link" data-entity-1="MON" data-entity-2="DB" data-source-line="36" data-uid="lnk28" id="link_MON_DB"><path d="M456.09,306.92 C475.9,319.66 504.67,336.58 532,346.86 C598.31,371.8 671.3007,386.5016 730.0507,395.6016" fill="none" id="MON-to-DB" style="stroke:#000000;stroke-width:1;"/><polygon fill="#000000" points="735.98,396.52,727.6983,391.1895,731.0389,395.7547,726.4738,399.0952,735.98,396.52" style="stroke:#000000;stroke-width:1;"/></g><!--link EM to DB--><g class="link" data-entity-1="EM" data-entity-2="DB" data-source-line="37" data-uid="lnk29" id="link_EM_DB"><path d="M652.91,306.92 C671.58,318.3 696.71,333.56 719,346.86 C740.73,359.83 759.9615,371.1395 779.5615,382.6095" fill="none" id="EM-to-DB" style="stroke:#000000;stroke-width:1;"/><polygon fill="#000000" points="784.74,385.64,778.9926,377.642,780.4246,383.1146,774.952,384.5466,784.74,385.64" style="stroke:#000000;stroke-width:1;"/></g><!--SRC=[TP71JiCm38RlVWgp0xVj0JWWTMiEI0k4zGb2PqgaDgsIL692l3jkadOTWflx-xFzv-zT-A2ES6YriQ3hq3lSb3fe5BOnbiXjK7iinTohBZvGXyMvCzRuu3Ih4QcA6IdK4nvQGpR4Hd40S5G7RPkMyd9b1cfvVRw2F99O7lq2n1M_e59RtR3Nl5R9VpZnIVKOJ6yJ9cunsLl3Berjy1ub1MTg7q7vydnB2kVuDR-k2WdV06T-mvlsqzNUXyPHzNh4Ceifi3tyVJJbbovMQqQr8qU19sgcM2_9_0cW5BZTFiPa7h2BRZnKnKhK-L-Gyr0SLeswjtxi68VfUzBBFSi3WupxHPKLguw6tWMFNSfaQQhJD1BD-UXcjyiJNNfLTBE8VFFTDAEZHOuBPkFNjV9QYgiJ_WbppL63ajasA35NpCobcDi_]--></g></svg>