<svg xmlns="http://www.w3.org/2000/svg" xmlns:xlink="http://www.w3.org/1999/xlink" contentStyleType="text/css" data-diagram-type="DESCRIPTION" height="630px" preserveAspectRatio="none" style="width:901px;height:630px;background:#FFFFFF;" version="1.1" viewBox="0 0 901 630" width="901px" zoomAndPan="magnify"><defs/><g><!--entity UC001--><g class="entity" data-entity="UC001" data-source-line="7" data-uid="ent0002" id="entity_UC001"><rect fill="#FF6B6B" height="52.5938" rx="2.5" ry="2.5" style="stroke:#181818;stroke-width:0.5;" width="187.3369" x="351" y="233"/><text fill="#000000" font-family="sans-serif" font-size="14" font-style="italic" lengthAdjust="spacing" textLength="47.8037" x="420.7666" y="255.9951">&#171;high&#187;</text><text fill="#000000" font-family="sans-serif" font-size="14" lengthAdjust="spacing" textLength="167.3369" x="361" y="272.292">UC-001: Create Pipeline</text></g><!--entity UC002--><g class="entity" data-entity="UC002" data-source-line="8" data-uid="ent0003" id="entity_UC002"><rect fill="#4ECDC4" height="52.5938" rx="2.5" ry="2.5" style="stroke:#181818;stroke-width:0.5;" width="191.2129" x="7" y="120"/><text fill="#000000" font-family="sans-serif" font-size="14" font-style="italic" lengthAdjust="spacing" textLength="74.8193" x="65.1968" y="142.9951">&#171;medium&#187;</text><text fill="#000000" font-family="sans-serif" font-size="14" lengthAdjust="spacing" textLength="171.2129" x="17" y="159.292">UC-002: Update Pipeline</text></g><!--entity UC003--><g class="entity" data-entity="UC003" data-source-line="9" data-uid="ent0004" id="entity_UC003"><rect fill="#4ECDC4" height="52.5938" rx="2.5" ry="2.5" style="stroke:#181818;stroke-width:0.5;" width="186.5098" x="233" y="120"/><text fill="#000000" font-family="sans-serif" font-size="14" font-style="italic" lengthAdjust="spacing" textLength="74.8193" x="288.8452" y="142.9951">&#171;medium&#187;</text><text fill="#000000" font-family="sans-serif" font-size="14" lengthAdjust="spacing" textLength="166.5098" x="243" y="159.292">UC-003: Delete Pipeline</text></g><!--entity UC004--><g class="entity" data-entity="UC004" data-source-line="10" data-uid="ent0005" id="entity_UC004"><rect fill="#FF6B6B" height="52.5938" rx="2.5" ry="2.5" style="stroke:#181818;stroke-width:0.5;" width="196.9277" x="346" y="346"/><text fill="#000000" font-family="sans-serif" font-size="14" font-style="italic" lengthAdjust="spacing" textLength="47.8037" x="420.562" y="368.9951">&#171;high&#187;</text><text fill="#000000" font-family="sans-serif" font-size="14" lengthAdjust="spacing" textLength="176.9277" x="356" y="385.292">UC-004: Execute Pipeline</text></g><!--entity UC005--><g class="entity" data-entity="UC005" data-source-line="11" data-uid="ent0006" id="entity_UC005"><rect fill="#FF6B6B" height="52.5938" rx="2.5" ry="2.5" style="stroke:#181818;stroke-width:0.5;" width="207.7627" x="262.5" y="459"/><text fill="#000000" font-family="sans-serif" font-size="14" font-style="italic" lengthAdjust="spacing" textLength="47.8037" x="342.4795" y="481.9951">&#171;high&#187;</text><text fill="#000000" font-family="sans-serif" font-size="14" lengthAdjust="spacing" textLength="187.7627" x="272.5" y="498.292">UC-005: Monitor Execution</text></g><!--entity UC006--><g class="entity" data-entity="UC006" data-source-line="12" data-uid="ent0007" id="entity_UC006"><rect fill="#FF6B6B" height="52.5938" rx="2.5" ry="2.5" style="stroke:#181818;stroke-width:0.5;" width="170.124" x="359.5" y="572"/><text fill="#000000" font-family="sans-serif" font-size="14" font-style="italic" lengthAdjust="spacing" textLength="47.8037" x="420.6602" y="594.9951">&#171;high&#187;</text><text fill="#000000" font-family="sans-serif" font-size="14" lengthAdjust="spacing" textLength="150.124" x="369.5" y="611.292">UC-006: View Results</text></g><!--entity UC007--><g class="entity" data-entity="UC007" data-source-line="13" data-uid="ent0008" id="entity_UC007"><rect fill="#4ECDC4" height="52.5938" rx="2.5" ry="2.5" style="stroke:#181818;stroke-width:0.5;" width="216.3008" x="455.5" y="120"/><text fill="#000000" font-family="sans-serif" font-size="14" font-style="italic" lengthAdjust="spacing" textLength="74.8193" x="526.2407" y="142.9951">&#171;medium&#187;</text><text fill="#000000" font-family="sans-serif" font-size="14" lengthAdjust="spacing" textLength="196.3008" x="465.5" y="159.292">UC-007: Manage Processors</text></g><!--entity UC008--><g class="entity" data-entity="UC008" data-source-line="14" data-uid="ent0009" id="entity_UC008"><rect fill="#4ECDC4" height="52.5938" rx="2.5" ry="2.5" style="stroke:#181818;stroke-width:0.5;" width="188.5264" x="707" y="120"/><text fill="#000000" font-family="sans-serif" font-size="14" font-style="italic" lengthAdjust="spacing" textLength="74.8193" x="763.8535" y="142.9951">&#171;medium&#187;</text><text fill="#000000" font-family="sans-serif" font-size="14" lengthAdjust="spacing" textLength="168.5264" x="717" y="159.292">UC-008: Create Schema</text></g><!--entity UC009--><g class="entity" data-entity="UC009" data-source-line="15" data-uid="ent0010" id="entity_UC009"><rect fill="#45B7D1" height="52.5938" rx="2.5" ry="2.5" style="stroke:#181818;stroke-width:0.5;" width="170.4111" x="478.5" y="7"/><text fill="#000000" font-family="sans-serif" font-size="14" font-style="italic" lengthAdjust="spacing" textLength="41.1865" x="543.1123" y="29.9951">&#171;low&#187;</text><text fill="#000000" font-family="sans-serif" font-size="14" lengthAdjust="spacing" textLength="150.4111" x="488.5" y="46.292">UC-009: Install Plugin</text></g><!--entity UC010--><g class="entity" data-entity="UC010" data-source-line="16" data-uid="ent0011" id="entity_UC010"><rect fill="#4ECDC4" height="52.5938" rx="2.5" ry="2.5" style="stroke:#181818;stroke-width:0.5;" width="188.4375" x="44.5" y="346"/><text fill="#000000" font-family="sans-serif" font-size="14" font-style="italic" lengthAdjust="spacing" textLength="74.8193" x="101.3091" y="368.9951">&#171;medium&#187;</text><text fill="#000000" font-family="sans-serif" font-size="14" lengthAdjust="spacing" textLength="168.4375" x="54.5" y="385.292">UC-010: System Metrics</text></g><!--entity UC011--><g class="entity" data-entity="UC011" data-source-line="17" data-uid="ent0012" id="entity_UC011"><rect fill="#FF6B6B" height="52.5938" rx="2.5" ry="2.5" style="stroke:#181818;stroke-width:0.5;" width="176.7549" x="50" y="459"/><text fill="#000000" font-family="sans-serif" font-size="14" font-style="italic" lengthAdjust="spacing" textLength="47.8037" x="114.4756" y="481.9951">&#171;high&#187;</text><text fill="#000000" font-family="sans-serif" font-size="14" lengthAdjust="spacing" textLength="156.7549" x="60" y="498.292">UC-011: Handle Errors</text></g><!--entity UC012--><g class="entity" data-entity="UC012" data-source-line="18" data-uid="ent0013" id="entity_UC012"><rect fill="#FF6B6B" height="52.5938" rx="2.5" ry="2.5" style="stroke:#181818;stroke-width:0.5;" width="176.3447" x="576.5" y="459"/><text fill="#000000" font-family="sans-serif" font-size="14" font-style="italic" lengthAdjust="spacing" textLength="47.8037" x="640.7705" y="481.9951">&#171;high&#187;</text><text fill="#000000" font-family="sans-serif" font-size="14" lengthAdjust="spacing" textLength="156.3447" x="586.5" y="498.292">UC-012: Validate Data</text></g><!--link UC001 to UC004--><g class="link" data-entity-1="UC001" data-entity-2="UC004" data-source-line="20" data-uid="lnk14" id="link_UC001_UC004"><path d="M444.5,286.24 C444.5,304.18 444.5,321.99 444.5,339.89" fill="none" id="UC001-to-UC004" style="stroke:#181818;stroke-width:1;"/><polygon fill="#181818" points="444.5,345.89,448.5,336.89,444.5,340.89,440.5,336.89,444.5,345.89" style="stroke:#181818;stroke-width:1;"/></g><!--link UC008 to UC001--><g class="link" data-entity-1="UC008" data-entity-2="UC001" data-source-line="21" data-uid="lnk15" id="link_UC008_UC001"><path d="M719.15,173.11 C661.39,191.06 590.2094,213.1985 532.4794,231.1485" fill="none" id="UC008-to-UC001" style="stroke:#181818;stroke-width:1;"/><polygon fill="#181818" points="526.75,232.93,536.5318,234.0774,531.5245,231.4455,534.1565,226.4382,526.75,232.93" style="stroke:#181818;stroke-width:1;"/></g><!--link UC007 to UC001--><g class="link" data-entity-1="UC007" data-entity-2="UC001" data-source-line="22" data-uid="lnk16" id="link_UC007_UC001"><path d="M535.9,173.24 C516.68,191.18 495.5275,210.8974 476.3375,228.7974" fill="none" id="UC007-to-UC001" style="stroke:#181818;stroke-width:1;"/><polygon fill="#181818" points="471.95,232.89,481.2597,229.6761,475.6063,229.4795,475.8029,223.8261,471.95,232.89" style="stroke:#181818;stroke-width:1;"/></g><!--link UC004 to UC012--><g class="link" data-entity-1="UC004" data-entity-2="UC012" data-source-line="24" data-uid="lnk17" id="link_UC004_UC012"><path d="M495.25,399.11 C530.78,417.03 572.7131,438.1875 608.2731,456.1275" fill="none" id="UC004-to-UC012" style="stroke:#181818;stroke-width:1;"/><polygon fill="#181818" points="613.63,458.83,607.3964,451.2049,609.1659,456.5779,603.793,458.3474,613.63,458.83" style="stroke:#181818;stroke-width:1;"/></g><!--link UC004 to UC011--><g class="link" data-entity-1="UC004" data-entity-2="UC011" data-source-line="25" data-uid="lnk18" id="link_UC004_UC011"><path d="M373.91,399.11 C324.4,417.06 264.1305,438.9342 214.6405,456.8842" fill="none" id="UC004-to-UC011" style="stroke:#181818;stroke-width:1;"/><polygon fill="#181818" points="209,458.93,218.8245,459.6216,213.7004,457.2252,216.0968,452.101,209,458.93" style="stroke:#181818;stroke-width:1;"/></g><!--link UC004 to UC005--><g class="link" data-entity-1="UC004" data-entity-2="UC005" data-source-line="26" data-uid="lnk19" id="link_UC004_UC005"><path d="M426.41,399.24 C413.81,417.18 400.52,436.0811 387.94,453.9811" fill="none" id="UC004-to-UC005" style="stroke:#181818;stroke-width:1;"/><polygon fill="#181818" points="384.49,458.89,392.9376,453.8266,387.365,454.7992,386.3923,449.2266,384.49,458.89" style="stroke:#181818;stroke-width:1;"/></g><!--link UC005 to UC006--><g class="link" data-entity-1="UC005" data-entity-2="UC006" data-source-line="28" data-uid="lnk20" id="link_UC005_UC006"><path d="M384.59,512.24 C397.19,530.18 410.48,549.0811 423.06,566.9811" fill="none" id="UC005-to-UC006" style="stroke:#181818;stroke-width:1;"/><polygon fill="#181818" points="426.51,571.89,424.6077,562.2266,423.635,567.7992,418.0624,566.8266,426.51,571.89" style="stroke:#181818;stroke-width:1;"/></g><!--link UC004 to UC006--><g class="link" data-entity-1="UC004" data-entity-2="UC006" data-source-line="29" data-uid="lnk21" id="link_UC004_UC006"><path d="M461.82,399.17 C471.78,415.52 483.31,437.58 488.5,459 C494.05,481.89 494.05,489.11 488.5,512 C483.31,533.42 474.9015,550.3559 464.9415,566.7059" fill="none" id="UC004-to-UC006" style="stroke:#181818;stroke-width:1;"/><polygon fill="#181818" points="461.82,571.83,469.9183,566.2248,464.4212,567.5599,463.0861,562.0629,461.82,571.83" style="stroke:#181818;stroke-width:1;"/></g><!--link UC002 to UC001--><g class="link" data-entity-1="UC002" data-entity-2="UC001" data-source-line="31" data-uid="lnk22" id="link_UC002_UC001"><path d="M181.39,173.11 C236.72,191.06 304.693,213.1279 360.003,231.0779" fill="none" id="UC002-to-UC001" style="stroke:#181818;stroke-width:1;stroke-dasharray:7.0,7.0;"/><polygon fill="#181818" points="365.71,232.93,358.3843,226.3472,360.9542,231.3866,355.9148,233.9565,365.71,232.93" style="stroke:#181818;stroke-width:1;"/></g><!--link UC003 to UC001--><g class="link" data-entity-1="UC003" data-entity-2="UC001" data-source-line="32" data-uid="lnk23" id="link_UC003_UC001"><path d="M353.87,173.24 C372.93,191.18 393.8796,210.8791 412.9096,228.7791" fill="none" id="UC003-to-UC001" style="stroke:#181818;stroke-width:1;stroke-dasharray:7.0,7.0;"/><polygon fill="#181818" points="417.28,232.89,413.465,223.81,413.638,229.4643,407.9838,229.6373,417.28,232.89" style="stroke:#181818;stroke-width:1;"/></g><!--link UC009 to UC007--><g class="link" data-entity-1="UC009" data-entity-2="UC007" data-source-line="34" data-uid="lnk24" id="link_UC009_UC007"><path d="M563.5,60.24 C563.5,78.18 563.5,95.99 563.5,113.89" fill="none" id="UC009-to-UC007" style="stroke:#181818;stroke-width:1;"/><polygon fill="#181818" points="563.5,119.89,567.5,110.89,563.5,114.89,559.5,110.89,563.5,119.89" style="stroke:#181818;stroke-width:1;"/></g><!--link UC010 to UC011--><g class="link" data-entity-1="UC010" data-entity-2="UC011" data-source-line="35" data-uid="lnk25" id="link_UC010_UC011"><path d="M138.5,399.24 C138.5,417.18 138.5,434.99 138.5,452.89" fill="none" id="UC010-to-UC011" style="stroke:#181818;stroke-width:1;stroke-dasharray:7.0,7.0;"/><polygon fill="#181818" points="138.5,458.89,142.5,449.89,138.5,453.89,134.5,449.89,138.5,458.89" style="stroke:#181818;stroke-width:1;"/></g><!--SRC=[VP9FRu904CNl-oaczgnXaJzAZ8UYINimCJLwNs74ZSkkMI2sQVhTIrq4gy3nxRvVPjxCP2Skpqop53H6EPE9GFWc0AyiEYLQ5J8EbL1wDZlov3YVmylXuEszVPiZnPWNwP_7mIYEd3QFK9UhmTtxCIK_X3HL1zjmQ5aqW50Zon7M_8o2Inm0os0Rbbzmw-A9iWFOdkDMoeQcioTk7C021RPnupxE2M3vYL7H1ZhTRRe1h9JakT8LpfMiERURymBOSRp01sQ5oBCQyReHlop594lA1hMACCkKRZY_Bzkati0cEcBAQchIHqq3U9TPpeI0jIWItkIQGhNsHuPQ0Mo-iXnJM66kULGtIAsUKhGyaJScur8ljRwBHRiFX9O7icE2NqzamV8w5BKRXfWZ6mxdPe_4XBvfIipe6atCkgi7QZze-bzRhW7S-i5xC7Z6OCDeT5zoVAU9cUYDy8cPLcMWz1S0]--></g></svg>